<?xml version="1.0" encoding="utf-8"?>
<!-- Svg Vector Icons : http://www.onlinewebfonts.com/icon -->
<!DOCTYPE svg PUBLIC "-//W3C//DTD SVG 1.1//EN" "http://www.w3.org/Graphics/SVG/1.1/DTD/svg11.dtd">
<svg version="1.1" xmlns="http://www.w3.org/2000/svg" xmlns:xlink="http://www.w3.org/1999/xlink" x="0px" y="0px" viewBox="0 0 256 256" enable-background="new 0 0 256 256" xml:space="preserve">
<metadata> Svg Vector Icons : http://www.onlinewebfonts.com/icon </metadata>
<g><g><path fill="#000000" d="M83.8,184.6l-6.5,6.5c-0.9,0.9-1.9,1.3-3,1.3s-2.1-0.4-3-1.3L11.3,131c-0.9-0.9-1.3-1.9-1.3-3s0.4-2.1,1.3-3l60.1-60.1c0.9-0.9,1.9-1.3,3-1.3c1.1,0,2.1,0.4,3,1.3l6.5,6.5c0.9,0.9,1.3,1.9,1.3,3c0,1.1-0.4,2.1-1.3,3L33.1,128l50.7,50.7c0.9,0.9,1.3,1.9,1.3,3C85.1,182.8,84.6,183.7,83.8,184.6z M160,47l-48.1,166.5c-0.3,1.1-1,2-2,2.5c-1,0.6-2,0.7-3,0.3l-8-2.2c-1.1-0.3-2-1-2.5-2s-0.7-2-0.3-3.2l48.1-166.4c0.3-1.1,1-2,2-2.5c1-0.6,2-0.7,3-0.3l8,2.2c1.1,0.3,2,1,2.5,2C160.2,44.9,160.3,45.9,160,47L160,47z M244.7,131l-60.1,60.1c-0.9,0.9-1.9,1.3-3,1.3s-2.1-0.4-3-1.3l-6.5-6.5c-0.9-0.9-1.3-1.9-1.3-3s0.4-2.1,1.3-3l50.7-50.7l-50.7-50.7c-0.9-0.9-1.3-1.9-1.3-3c0-1.1,0.4-2.1,1.3-3l6.5-6.5c0.9-0.9,1.9-1.3,3-1.3s2.1,0.4,3,1.3l60.1,60.1c0.9,0.9,1.3,1.9,1.3,3C246,129.1,245.5,130.1,244.7,131L244.7,131z"/></g></g>
</svg>